<svg width="26" height="20" viewBox="0 0 26 20" fill="none" xmlns="http://www.w3.org/2000/svg">
<path d="M0.928572 0H25.0714C25.585 0 26 0.40625 26 0.909091V19.0909C26 19.5938 25.585 20 25.0714 20H0.928572C0.414955 20 0 19.5938 0 19.0909V0.909091C0 0.40625 0.414955 0 0.928572 0ZM2.08929 3.14773V17.9545H23.9107V3.14773L24.7116 2.53693L23.5712 1.10227L22.3292 2.0483H3.66786L2.42589 1.10227L1.28549 2.53693L2.08929 3.14773ZM3.66786 2.04545L13 9.14773L22.3321 2.04545L23.5741 1.09943L24.7145 2.53409L23.9136 3.14489L14.0011 10.6903C13.716 10.9072 13.3653 11.0249 13.0044 11.0249C12.6434 11.0249 12.2927 10.9072 12.0076 10.6903L2.08929 3.14773L1.28839 2.53693L2.42879 1.10227L3.66786 2.04545Z" fill="white"/>
</svg>
